<svg width="608" height="54" viewBox="0 0 608 54" fill="none" xmlns="http://www.w3.org/2000/svg">
<!--<g filter="url(#filter0_d_2256_82437)">-->
<!--<path d="M5.824 45.8H15.952L20.368 14.888H17.536L23.872 0.583997H16.384C14.528 0.583997 13.088 1.496 12.064 3.32L4.912 18.536H9.712L5.824 45.8ZM20.224 27.368L19.456 32.888L21.952 35.24L17.872 45.8H24.592C26.64 45.8 28.176 44.76 29.2 42.68L29.44 42.008L31.072 43.448C31.968 44.216 32.864 44.776 33.76 45.128C34.624 45.512 35.76 45.704 37.168 45.704H60.352L60.448 44.936C60.544 44.104 60.32 43.384 59.776 42.776C59.264 42.168 58.592 41.864 57.76 41.864H40.096C39.072 41.864 38.128 41.704 37.264 41.384C36.4 41.032 35.6 40.536 34.864 39.896L31.408 36.92L38.032 19.832L38.608 15.8H33.472L39.184 5L39.76 1.016H24.64L24.448 2.456C24.384 3.096 24.544 3.656 24.928 4.136C25.344 4.584 25.872 4.808 26.512 4.808H29.2L22.864 15.8L22.336 19.64H28.096L23.824 30.488L20.224 27.368ZM41.776 40.664H51.52L52.144 36.152H59.392C60.064 36.152 60.64 35.96 61.12 35.576C61.6 35.16 61.888 34.632 61.984 33.992L62.224 32.36H52.72L53.344 27.992H59.872C60.512 27.992 61.072 27.784 61.552 27.368C62.032 26.952 62.32 26.424 62.416 25.784L62.656 24.152H53.872L54.352 20.936H58.816C59.968 20.936 61.008 20.408 61.936 19.352C62.864 18.328 63.44 17.096 63.664 15.656L63.952 13.496C64.24 13.496 64.48 13.416 64.672 13.256C64.864 13.064 64.992 12.824 65.056 12.536L65.44 9.656H64.48L65.536 2.312H56.992L57.232 0.535997H48.736C48.384 0.535997 48.064 0.647998 47.776 0.871999C47.52 1.096 47.376 1.384 47.344 1.736L47.248 2.312H43.936C43.392 2.312 42.912 2.488 42.496 2.84C42.112 3.16 41.872 3.592 41.776 4.136L41.488 6.104H46.72L46.192 9.656H41.824C41.28 9.656 40.8 9.832 40.384 10.184C39.968 10.536 39.728 10.984 39.664 11.528L39.376 13.496H45.664L45.136 17.096H42.016C41.472 17.096 40.992 17.272 40.576 17.624C40.16 17.976 39.92 18.424 39.856 18.968L39.568 20.936H44.608L44.128 24.152H40.624C39.984 24.152 39.424 24.36 38.944 24.776C38.464 25.192 38.176 25.72 38.08 26.36L37.84 27.992H43.552L42.976 32.36H38.752C38.112 32.36 37.552 32.568 37.072 32.984C36.592 33.368 36.288 33.896 36.16 34.568L35.968 36.152H42.4L41.776 40.664ZM58.624 6.104L58.096 9.656H55.936L56.464 6.104H58.624ZM56.128 17.096H54.88L55.408 13.496H57.568L57.184 15.944C57.152 16.232 57.024 16.504 56.8 16.76C56.608 16.984 56.384 17.096 56.128 17.096ZM142.231 2.12L141.751 5.816H138.199L138.919 9.944H131.959C130.679 9.944 129.831 9.208 129.415 7.736L129.079 5.672H123.751L123.127 7.064C122.007 8.984 120.583 9.944 118.855 9.944H111.511L115.687 1.736C116.103 0.967998 116.647 0.583997 117.319 0.583997H126.439L125.767 2.12H142.231ZM136.423 12.68C137.479 12.68 138.375 13.08 139.111 13.88C139.719 14.648 139.959 15.56 139.831 16.616L139.639 18.152H129.943L130.135 16.952C130.167 16.632 130.103 16.36 129.943 16.136C129.783 15.912 129.543 15.8 129.223 15.8H93.4626L93.8946 12.68H106.519L106.759 11.096H115.063C115.447 11.096 115.735 11.24 115.927 11.528C116.151 11.784 116.247 12.104 116.215 12.488V12.68H136.423ZM93.3666 7.256C92.3106 9.048 90.9666 9.944 89.3346 9.944H81.8466L86.0226 1.592C86.4386 0.919997 86.9346 0.583997 87.5106 0.583997H96.7266L96.1026 2.12H112.567L112.039 5.816H107.767L108.487 9.944H101.671C100.103 9.944 99.0626 9.048 98.5506 7.256L98.3106 5.672H94.0866L93.3666 7.256ZM92.4066 12.68L91.8306 16.952L91.7826 17.336V17.432L91.6866 18.152H81.9906L82.2306 16.616C82.3906 15.496 82.9026 14.552 83.7666 13.784C84.6306 13.048 85.6066 12.68 86.6946 12.68H92.4066ZM92.6946 33.32H134.695L133.687 41.048C133.495 42.36 132.887 43.48 131.863 44.408C130.807 45.336 129.671 45.8 128.455 45.8H85.8786C84.6306 45.8 83.6386 45.336 82.9026 44.408C82.1346 43.48 81.8466 42.36 82.0386 41.048L84.8706 19.688H94.5186L94.0386 23.576L93.8946 24.584L93.8466 24.776L93.5106 27.512H122.935C123.223 27.512 123.479 27.4 123.703 27.176C123.959 26.952 124.103 26.696 124.135 26.408L124.519 23.576H95.5266L96.0066 19.688H134.695L133.783 26.504C133.591 27.784 132.983 28.856 131.959 29.72C130.935 30.584 129.815 31.016 128.599 31.016H93.0306L92.6946 33.32ZM124.087 40.376L124.567 36.872H92.2626L91.7826 40.376C91.6866 40.856 91.7506 41.288 91.9746 41.672C92.1026 41.864 92.2466 42.008 92.4066 42.104C92.5666 42.232 92.7746 42.296 93.0306 42.296H122.215C122.727 42.296 123.159 42.088 123.511 41.672C123.863 41.288 124.055 40.856 124.087 40.376ZM203.133 43.592C203.197 44.232 203.453 44.76 203.901 45.176C204.349 45.592 204.877 45.8 205.485 45.8H212.877L211.437 31.256C211.213 29.304 210.413 27.704 209.037 26.456C207.661 25.176 206.045 24.536 204.189 24.536H201.165L202.749 38.552L170.157 40.376C169.741 40.44 169.453 40.344 169.293 40.088C169.133 39.8 169.117 39.528 169.245 39.272L179.277 19.208H215.037C215.709 19.208 216.285 18.984 216.765 18.536C217.277 18.088 217.581 17.528 217.677 16.856L217.965 14.888H163.485C162.813 14.888 162.221 15.112 161.709 15.56C161.197 16.008 160.893 16.584 160.797 17.288L160.509 19.208H169.293L158.829 40.664C158.541 41.24 158.445 41.8 158.541 42.344C158.637 42.92 158.861 43.432 159.213 43.88C159.821 44.744 160.717 45.144 161.901 45.08L203.085 42.392L203.133 43.592ZM166.461 0.487998C165.821 0.487998 165.245 0.711998 164.733 1.16C164.253 1.576 163.949 2.136 163.821 2.84L163.581 4.808H215.949C216.621 4.808 217.197 4.584 217.677 4.136C218.189 3.688 218.509 3.128 218.637 2.456L218.877 0.487998H166.461ZM259.86 26.744H237.78C237.3 26.744 236.884 26.904 236.532 27.224C236.148 27.544 235.908 27.96 235.812 28.472L235.332 31.88H259.14L257.22 45.8H267.204L269.124 31.88H291.012C291.492 31.88 291.924 31.72 292.308 31.4C292.66 31.08 292.868 30.68 292.932 30.2L293.412 26.744H269.844L272.772 5.24H293.604C294.084 5.24 294.516 5.08 294.9 4.76C295.252 4.44 295.46 4.04 295.524 3.56L295.956 0.535997H242.676C242.1 0.535997 241.604 0.727998 241.188 1.112C240.772 1.496 240.516 1.976 240.42 2.552L240.036 5.24H262.788L259.86 26.744ZM241.62 7.304L241.284 22.184C241.284 22.792 241.476 23.304 241.86 23.72C242.244 24.104 242.724 24.296 243.3 24.296H250.836L251.268 11.144C251.236 10.024 250.868 9.112 250.164 8.408C249.428 7.672 248.516 7.304 247.428 7.304H241.62ZM283.14 8.984L279.3 24.296H282.372C284.228 24.296 285.924 23.672 287.46 22.424C288.996 21.176 290.02 19.592 290.532 17.672L293.172 7.304H285.252C284.772 7.304 284.324 7.464 283.908 7.784C283.524 8.104 283.268 8.504 283.14 8.984ZM328.201 22.52L327.673 26.744H359.353L357.577 39.32C357.481 39.992 357.145 40.568 356.569 41.048C356.057 41.496 355.465 41.72 354.793 41.72H325.897C325.225 41.72 324.697 41.48 324.313 41C323.929 40.52 323.801 39.944 323.929 39.272L326.281 22.52H314.665L312.169 40.472C311.945 41.976 312.281 43.24 313.177 44.264C314.073 45.288 315.257 45.8 316.729 45.8H362.905C364.409 45.8 365.737 45.288 366.889 44.264C368.105 43.24 368.809 41.96 369.001 40.424L371.545 22.52H328.201ZM315.577 19.304C315.961 19.56 316.457 19.672 317.065 19.64L362.137 18.488L362.233 19.208C362.457 20.136 362.985 20.6 363.817 20.6H372.745L371.113 8.024C370.985 6.776 370.521 5.784 369.721 5.048C368.889 4.28 367.865 3.896 366.649 3.896H360.265L361.513 14.072L329.065 14.888C328.713 14.888 328.473 14.776 328.345 14.552C328.217 14.36 328.217 14.072 328.345 13.688L336.025 0.535997L324.121 0.583997L314.761 15.416C314.505 15.896 314.361 16.392 314.329 16.904C314.329 17.416 314.441 17.88 314.665 18.296C314.857 18.712 315.161 19.048 315.577 19.304ZM394.768 21.176C393.648 21.176 392.752 20.808 392.08 20.072C391.408 19.304 391.152 18.344 391.312 17.192L393.616 0.583997H403.408L402.208 9.32H437.2C437.52 9.32 437.84 9.208 438.16 8.984C438.48 8.728 438.672 8.456 438.736 8.168L439.312 4.184H404.896L405.376 0.583997H449.536L448.384 9.08C448.224 10.232 447.696 11.224 446.8 12.056C445.904 12.856 444.88 13.256 443.728 13.256H401.632L401.2 16.28C401.2 16.44 401.216 16.6 401.248 16.76C401.312 16.92 401.392 17.064 401.488 17.192C401.584 17.32 401.696 17.432 401.824 17.528C401.984 17.592 402.144 17.624 402.304 17.624H444.4C445.36 17.624 446.128 17.976 446.704 18.68C447.312 19.384 447.568 20.216 447.472 21.176H394.768ZM393.232 37.208C391.952 37.016 390.928 36.424 390.16 35.432C389.424 34.44 389.136 33.288 389.296 31.976L418.144 35.48C418.368 35.512 418.528 35.608 418.624 35.768C418.752 35.896 418.816 36.072 418.816 36.296L418.24 40.184L393.232 37.208ZM443.536 24.392H447.424L447.04 27.128C446.976 27.608 446.768 28.008 446.416 28.328C446.064 28.616 445.664 28.76 445.216 28.76H442.912L441.328 40.088C441.232 40.952 440.976 41.736 440.56 42.44C440.176 43.144 439.696 43.736 439.12 44.216C438.512 44.696 437.856 45.08 437.152 45.368C436.416 45.656 435.68 45.8 434.944 45.8H421.024V45.704C421.184 44.584 421.664 43.656 422.464 42.92C423.296 42.216 424.272 41.864 425.392 41.864H429.184C429.76 41.864 430.272 41.72 430.72 41.432C431.168 41.144 431.44 40.712 431.536 40.136L433.12 28.76H388.96L389.296 26.264C389.392 25.72 389.632 25.272 390.016 24.92C390.4 24.568 390.848 24.392 391.36 24.392H433.696L433.984 22.376H443.776L443.536 24.392ZM515.671 2.888H526.327L525.991 5.096C525.927 5.576 525.735 5.96 525.415 6.248C525.095 6.536 524.711 6.68 524.263 6.68H494.887L495.223 4.472C495.287 3.992 495.479 3.608 495.799 3.32C496.151 3.032 496.551 2.888 496.999 2.888H506.023L506.311 0.727998H513.847C514.423 0.727998 514.887 0.935998 515.239 1.352C515.591 1.768 515.735 2.28 515.671 2.888ZM518.935 41.288C519.191 41.576 519.511 41.72 519.895 41.72H520.855L520.327 45.512H512.983C511.735 45.512 510.727 45.048 509.959 44.12C509.191 43.224 508.903 42.136 509.095 40.856L512.791 13.736H507.031L507.559 9.896H522.775L518.647 40.232C518.583 40.68 518.679 41.032 518.935 41.288ZM492.967 37.592L496.711 9.896H506.263L505.783 13.736L505.591 15.176L502.039 40.856C501.879 42.136 501.287 43.224 500.263 44.12C499.239 45.048 498.103 45.512 496.855 45.512H491.863L492.583 40.232L492.967 37.592ZM488.023 0.535997L487.879 1.832H494.263L488.887 41.144C488.727 42.424 488.135 43.528 487.111 44.456C486.087 45.352 484.951 45.8 483.703 45.8H476.935L477.463 42.008H478.519C478.839 42.008 479.127 41.896 479.383 41.672C479.639 41.416 479.783 41.144 479.815 40.856L480.775 33.848H477.895L478.327 30.68C478.391 30.136 478.615 29.704 478.999 29.384C479.383 29.032 479.847 28.856 480.391 28.856H481.447L481.975 24.92H477.655L475.447 41.144C475.287 42.424 474.695 43.528 473.671 44.456C472.647 45.352 471.511 45.8 470.263 45.8H465.703L466.375 41.144L466.615 39.176L468.583 24.92H466.855L467.239 22.136C467.335 21.624 467.559 21.208 467.911 20.888C468.263 20.536 468.695 20.36 469.207 20.36L471.703 1.832H478.759L478.951 0.535997H488.023ZM483.943 10.616L484.663 5.576H480.295L478.279 20.36H482.599L483.223 16.088H480.295L480.823 12.344C480.887 11.864 481.095 11.464 481.447 11.144C481.831 10.792 482.263 10.616 482.743 10.616H483.943ZM559.485 0.535997H603.069L597.549 41.048C597.357 42.36 596.749 43.48 595.725 44.408C594.701 45.336 593.549 45.8 592.269 45.8H546.813C545.533 45.8 544.509 45.336 543.741 44.408C542.973 43.48 542.669 42.36 542.829 41.048L548.349 0.535997H557.853L557.325 4.376L557.037 6.296L552.429 40.136C552.365 40.616 552.493 41.032 552.813 41.384C553.101 41.736 553.469 41.912 553.917 41.912H586.365C586.845 41.912 587.277 41.736 587.661 41.384C588.077 41.032 588.317 40.616 588.381 40.136L593.229 4.376H558.957L559.485 0.535997ZM555.069 36.92C555.197 36.152 555.533 35.544 556.077 35.096C556.621 34.616 557.261 34.392 557.997 34.424L586.557 35.96L586.365 37.496C586.237 38.264 585.901 38.872 585.357 39.32C584.813 39.768 584.173 39.992 583.437 39.992L554.877 38.504L555.069 36.92ZM560.397 25.832L586.749 27.128L586.509 28.712C586.381 29.48 586.045 30.104 585.501 30.584C584.957 31.032 584.317 31.24 583.581 31.208L557.085 29.912L557.277 28.52C557.405 27.688 557.757 27.032 558.333 26.552C558.909 26.04 559.597 25.8 560.397 25.832ZM563.517 6.296H570.573L569.853 7.688H590.637L590.013 12.44L580.701 17.432L586.317 19.976C586.701 20.168 587.165 20.296 587.709 20.36C588.221 20.456 588.765 20.504 589.341 20.504H589.869L589.389 24.008H583.485C581.725 24.008 580.237 23.88 579.021 23.624C577.773 23.368 576.589 22.968 575.469 22.424L572.685 21.128L569.853 22.424C569.245 22.68 568.669 22.904 568.125 23.096C567.581 23.32 567.021 23.496 566.445 23.624C565.869 23.752 565.245 23.848 564.573 23.912C563.901 23.976 563.133 24.008 562.269 24.008H556.413L556.893 20.504H557.373C558.589 20.504 559.661 20.328 560.589 19.976L565.821 17.864L563.805 16.904H557.373L560.973 7.976C561.581 6.856 562.429 6.296 563.517 6.296ZM579.069 11.528H569.133L573.933 14.552L579.069 11.528Z" fill="url(#paint0_linear_2256_82437)"/>-->
<!--</g>-->
  <g filter="url(#filter0_d_2256_82437)">
    <!-- 替换原path为文字，居中对齐+适配原有容器视觉尺寸 -->
    <text x="50%" y="50%"
          text-anchor="middle"
          dominant-baseline="middle"
          font-size="50"
          font-weight="600"
    font-family="Microsoft YaHei, PingFang SC, Helvetica Neue, Arial, sans-serif"
    letter-spacing="12px"
    fill="url(#paint0_linear_2256_82437)"
    style="text-rendering: optimizeLegibility; -webkit-font-smoothing: antialiased;">
    体检系统导航图
  </text>
  </g>
<defs>
<filter id="filter0_d_2256_82437" x="0.912109" y="0.488281" width="606.157" height="53.3125" filterUnits="userSpaceOnUse" color-interpolation-filters="sRGB">
<feFlood flood-opacity="0" result="BackgroundImageFix"/>
<feColorMatrix in="SourceAlpha" type="matrix" values="0 0 0 0 0 0 0 0 0 0 0 0 0 0 0 0 0 0 127 0" result="hardAlpha"/>
<feOffset dy="4"/>
<feGaussianBlur stdDeviation="2"/>
<feComposite in2="hardAlpha" operator="out"/>
<feColorMatrix type="matrix" values="0 0 0 0 0.796078 0 0 0 0 0.0823529 0 0 0 0 0.105882 0 0 0 0.3 0"/>
<feBlend mode="normal" in2="BackgroundImageFix" result="effect1_dropShadow_2256_82437"/>
<feBlend mode="normal" in="SourceGraphic" in2="effect1_dropShadow_2256_82437" result="shape"/>
</filter>
<linearGradient id="paint0_linear_2256_82437" x1="304" y1="-1" x2="304" y2="62" gradientUnits="userSpaceOnUse">
<stop stop-color="#FF8C8F"/>
<stop offset="1" stop-color="#CB151B"/>
</linearGradient>
</defs>
</svg>
